<?xml version="1.0" standalone="no"?>
<svg xmlns="http://www.w3.org/2000/svg" xmlns:xlink="http://www.w3.org/1999/xlink" width="489pt" height="848pt" viewBox="0.00 0.00 489.22 848.38">
<g id="graph0" class="graph" transform="translate(39.610800114931436,770.4815316372968) scale(0.8705505632961241)" data-name="BubbleSort">

<polygon fill="white" stroke="none" points="-14.4,14.4 -14.4,-833.98 474.82,-833.98 474.82,14.4 -14.4,14.4"/>
<!-- start --><text text-anchor="middle" x="230.21" y="-802.98" font-family="Times,serif" font-size="14.00">Bubble Sort (Boblesortering)</text>
<g id="node1" class="node" pointer-events="visible" data-name="start">

<ellipse fill="none" stroke="black" cx="312.11" cy="-772.03" rx="22.5" ry="22.5"/>
<text text-anchor="middle" x="312.11" y="-768.73" font-family="Times,serif" font-size="11.00">Start</text>
</g>
<!-- init -->
<g id="node2" class="node" pointer-events="visible" data-name="init">

<polygon fill="none" stroke="black" points="389.46,-722.28 234.75,-722.28 234.75,-686.28 389.46,-686.28 389.46,-722.28"/>
<text text-anchor="middle" x="312.11" y="-700.98" font-family="Times,serif" font-size="11.00">Liste med elementer (usorteret)</text>
</g>
<!-- start&#45;&gt;init -->
<g id="edge1" class="edge" data-name="start-&gt;init">

<path fill="none" stroke="black" d="M312.11,-749.13C312.11,-744.26 312.11,-739.02 312.11,-733.92"/>
<polygon fill="black" stroke="black" points="315.61,-734.02 312.11,-724.02 308.61,-734.02 315.61,-734.02"/>
</g>
<!-- outer_init -->
<g id="node3" class="node" pointer-events="visible" data-name="outer_init">

<polygon fill="none" stroke="black" points="359.63,-659.28 264.58,-659.28 264.58,-623.28 359.63,-623.28 359.63,-659.28"/>
<text text-anchor="middle" x="312.11" y="-637.98" font-family="Times,serif" font-size="11.00">Sæt 'byttet' = falsk</text>
</g>
<!-- init&#45;&gt;outer_init -->
<g id="edge2" class="edge" data-name="init-&gt;outer_init">

<path fill="none" stroke="black" d="M312.11,-685.96C312.11,-681.15 312.11,-675.81 312.11,-670.55"/>
<polygon fill="black" stroke="black" points="315.61,-670.94 312.11,-660.94 308.61,-670.94 315.61,-670.94"/>
</g>
<!-- inner_for -->
<g id="node4" class="node" pointer-events="visible" data-name="inner_for">

<polygon fill="none" stroke="black" points="324.98,-596.28 143.24,-596.28 143.24,-560.28 324.98,-560.28 324.98,-596.28"/>
<text text-anchor="middle" x="234.11" y="-574.98" font-family="Times,serif" font-size="11.00">Gennemløb: for hvert nabopar i listen</text>
</g>
<!-- outer_init&#45;&gt;inner_for -->
<g id="edge3" class="edge" data-name="outer_init-&gt;inner_for">

<path fill="none" stroke="black" d="M289.97,-622.96C282.31,-616.97 273.58,-610.14 265.33,-603.69"/>
<polygon fill="black" stroke="black" points="267.53,-600.97 257.5,-597.57 263.22,-606.49 267.53,-600.97"/>
</g>
<!-- cmp -->
<g id="node5" class="node" pointer-events="visible" data-name="cmp">

<polygon fill="none" stroke="black" points="193.11,-533.18 46.8,-498.88 193.11,-464.58 339.42,-498.88 193.11,-533.18"/>
<text text-anchor="middle" x="193.11" y="-502.18" font-family="Times,serif" font-size="11.00">Står nabopar</text>
<text text-anchor="middle" x="193.11" y="-488.98" font-family="Times,serif" font-size="11.00">allerede i korrekt rækkefølge?</text>
</g>
<!-- inner_for&#45;&gt;cmp -->
<g id="edge4" class="edge" data-name="inner_for-&gt;cmp">

<path fill="none" stroke="black" d="M225.01,-560.1C221.77,-553.98 217.96,-546.8 214.14,-539.57"/>
<polygon fill="black" stroke="black" points="217.44,-538.32 209.66,-531.13 211.25,-541.6 217.44,-538.32"/>
</g>
<!-- swap -->
<g id="node6" class="node" pointer-events="visible" data-name="swap">

<polygon fill="none" stroke="black" points="106.33,-426.48 -0.11,-426.48 -0.11,-390.48 106.33,-390.48 106.33,-426.48"/>
<text text-anchor="middle" x="53.11" y="-411.78" font-family="Times,serif" font-size="11.00">Byt de to elementer</text>
<text text-anchor="middle" x="53.11" y="-398.58" font-family="Times,serif" font-size="11.00">og sæt 'byttet' = sand</text>
</g>
<!-- cmp&#45;&gt;swap -->
<g id="edge5" class="edge" data-name="cmp-&gt;swap">

<path fill="none" stroke="black" d="M154.11,-473.25C134.18,-460.67 110.04,-445.43 90.36,-433"/>
<polygon fill="black" stroke="black" points="92.41,-430.16 82.09,-427.78 88.68,-436.07 92.41,-430.16"/>
<text text-anchor="middle" x="126.33" y="-442.48" font-family="Times,serif" font-size="10.00">Nej</text>
</g>
<!-- no_swap -->
<g id="node7" class="node" pointer-events="visible" data-name="no_swap">

<polygon fill="none" stroke="black" points="276.93,-426.48 131.29,-426.48 131.29,-390.48 276.93,-390.48 276.93,-426.48"/>
<text text-anchor="middle" x="204.11" y="-405.18" font-family="Times,serif" font-size="11.00">Gør intet (behold rækkefølge)</text>
</g>
<!-- cmp&#45;&gt;no_swap -->
<g id="edge6" class="edge" data-name="cmp-&gt;no_swap">

<path fill="none" stroke="black" d="M197.17,-465.21C198.27,-456.39 199.45,-446.9 200.52,-438.3"/>
<polygon fill="black" stroke="black" points="203.99,-438.76 201.75,-428.4 197.05,-437.89 203.99,-438.76"/>
<text text-anchor="middle" x="205.27" y="-442.48" font-family="Times,serif" font-size="10.00">Ja</text>
</g>
<!-- more_pairs -->
<g id="node8" class="node" pointer-events="visible" data-name="more_pairs">

<polygon fill="none" stroke="black" points="222.11,-363.38 122.22,-329.08 222.11,-294.78 321.99,-329.08 222.11,-363.38"/>
<text text-anchor="middle" x="222.11" y="-332.38" font-family="Times,serif" font-size="11.00">Flere nabopar</text>
<text text-anchor="middle" x="222.11" y="-319.18" font-family="Times,serif" font-size="11.00">i dette gennemløb?</text>
</g>
<!-- swap&#45;&gt;more_pairs -->
<g id="edge7" class="edge" data-name="swap-&gt;more_pairs">

<path fill="none" stroke="black" d="M91.04,-390.11C114.3,-379.45 144.42,-365.66 169.91,-353.98"/>
<polygon fill="black" stroke="black" points="171.15,-357.27 178.78,-349.92 168.23,-350.9 171.15,-357.27"/>
</g>
<!-- no_swap&#45;&gt;more_pairs -->
<g id="edge8" class="edge" data-name="no_swap-&gt;more_pairs">

<path fill="none" stroke="black" d="M208.1,-390.3C209.38,-384.82 210.85,-378.5 212.35,-372.06"/>
<polygon fill="black" stroke="black" points="215.67,-373.23 214.52,-362.7 208.85,-371.65 215.67,-373.23"/>
</g>
<!-- more_pairs&#45;&gt;cmp -->
<g id="edge9" class="edge" data-name="more_pairs-&gt;cmp">

<path fill="none" stroke="black" d="M256.5,-351.8C269.24,-361.86 282.23,-375.02 289.11,-390.48 295.61,-405.1 296.29,-412.18 289.11,-426.48 280.38,-443.85 265.19,-458.07 249.44,-469.11"/>
<polygon fill="black" stroke="black" points="247.83,-465.99 241.41,-474.42 251.68,-471.83 247.83,-465.99"/>
<text text-anchor="middle" x="299.27" y="-405.48" font-family="Times,serif" font-size="10.00">Ja</text>
</g>
<!-- outer_check -->
<g id="node9" class="node" pointer-events="visible" data-name="outer_check">

<polygon fill="none" stroke="black" points="308.11,-256.58 206.66,-222.28 308.11,-187.98 409.56,-222.28 308.11,-256.58"/>
<text text-anchor="middle" x="308.11" y="-225.58" font-family="Times,serif" font-size="11.00">Endte gennemløbet</text>
<text text-anchor="middle" x="308.11" y="-212.38" font-family="Times,serif" font-size="11.00">uden bytninger?</text>
</g>
<!-- more_pairs&#45;&gt;outer_check -->
<g id="edge10" class="edge" data-name="more_pairs-&gt;outer_check">

<path fill="none" stroke="black" d="M243.59,-301.9C254.47,-288.65 267.82,-272.38 279.55,-258.08"/>
<polygon fill="black" stroke="black" points="282.01,-260.6 285.65,-250.65 276.6,-256.16 282.01,-260.6"/>
<text text-anchor="middle" x="275.33" y="-272.68" font-family="Times,serif" font-size="10.00">Nej</text>
</g>
<!-- outer_check&#45;&gt;outer_init -->
<g id="edge12" class="edge" data-name="outer_check-&gt;outer_init">

<path fill="none" stroke="black" d="M335.78,-247.48C354.97,-267.06 377.11,-296.49 377.11,-328.08 377.11,-579.28 377.11,-579.28 377.11,-579.28 377.11,-594.2 367.89,-606.53 356.39,-616.11"/>
<polygon fill="black" stroke="black" points="354.42,-613.22 348.49,-622 358.6,-618.83 354.42,-613.22"/>
<text text-anchor="middle" x="418.76" y="-442.48" font-family="Times,serif" font-size="10.00">Nej (nyt gennemløb)</text>
</g>
<!-- end -->
<g id="node10" class="node" pointer-events="visible" data-name="end">

<ellipse fill="none" stroke="black" cx="308.11" cy="-74.94" rx="70.88" ry="70.88"/>
<ellipse fill="none" stroke="black" cx="308.11" cy="-74.94" rx="74.88" ry="74.88"/>
<text text-anchor="middle" x="308.11" y="-71.64" font-family="Times,serif" font-size="11.00">Slut (listen er sorteret)</text>
</g>
<!-- outer_check&#45;&gt;end -->
<g id="edge11" class="edge" data-name="outer_check-&gt;end">

<path fill="none" stroke="black" d="M308.11,-187.57C308.11,-179.58 308.11,-170.7 308.11,-161.54"/>
<polygon fill="black" stroke="black" points="311.61,-161.77 308.11,-151.77 304.61,-161.77 311.61,-161.77"/>
<text text-anchor="middle" x="312.27" y="-165.88" font-family="Times,serif" font-size="10.00">Ja</text>
</g>

</g>
</svg>